<svg xmlns="http://www.w3.org/2000/svg" xmlns:xlink="http://www.w3.org/1999/xlink" width="500" zoomAndPan="magnify" viewBox="0 0 375 374.999991" height="500" preserveAspectRatio="xMidYMid meet" version="1.0"><defs><g/></defs><path fill="rgb(70.199585%, 77.249146%, 84.309387%)" d="M 184.839844 65.292969 C 132.027344 65.292969 89.214844 108.105469 89.214844 160.917969 C 89.214844 213.730469 132.027344 256.542969 184.839844 256.542969 C 237.652344 256.542969 280.464844 213.730469 280.464844 160.917969 C 280.464844 108.105469 237.652344 65.292969 184.839844 65.292969 " fill-opacity="1" fill-rule="nonzero"/><path fill="rgb(19.60907%, 21.569824%, 23.139954%)" d="M 204.550781 160.976562 C 204.550781 174.445312 213.652344 185.789062 226.035156 189.195312 C 230.609375 190.453125 233.816406 194.546875 233.816406 199.289062 L 233.816406 199.316406 C 233.816406 205.078125 229.144531 209.75 223.382812 209.75 L 223.355469 209.75 C 218.613281 209.75 214.519531 206.539062 213.261719 201.96875 C 209.855469 189.585938 198.511719 180.484375 185.042969 180.484375 C 171.574219 180.484375 160.230469 189.585938 156.824219 201.96875 C 155.566406 206.539062 151.472656 209.75 146.730469 209.75 L 146.703125 209.75 C 140.941406 209.75 136.269531 205.078125 136.269531 199.316406 L 136.269531 199.289062 C 136.269531 194.546875 139.480469 190.453125 144.050781 189.195312 C 156.433594 185.789062 165.535156 174.445312 165.535156 160.976562 C 165.535156 147.507812 156.433594 136.164062 144.050781 132.757812 C 139.480469 131.5 136.269531 127.410156 136.269531 122.667969 L 136.269531 122.640625 C 136.269531 116.878906 140.941406 112.203125 146.703125 112.203125 L 146.730469 112.203125 C 151.472656 112.203125 155.566406 115.414062 156.824219 119.984375 C 160.230469 132.371094 171.574219 141.46875 185.042969 141.46875 C 198.511719 141.46875 209.855469 132.367188 213.261719 119.984375 C 214.519531 115.410156 218.613281 112.203125 223.355469 112.203125 L 223.382812 112.203125 C 229.144531 112.203125 233.816406 116.875 233.816406 122.636719 L 233.816406 122.664062 C 233.816406 127.40625 230.609375 131.5 226.035156 132.757812 C 213.652344 136.164062 204.550781 147.507812 204.550781 160.976562 Z M 204.550781 160.976562 " fill-opacity="1" fill-rule="nonzero"/><path fill="rgb(84.709167%, 88.238525%, 91.369629%)" d="M 134.585938 98.820312 C 144.03125 94.234375 155.753906 95.855469 163.585938 103.6875 C 164.484375 104.589844 164.46875 106.054688 163.546875 106.9375 C 162.652344 107.789062 161.214844 107.734375 160.335938 106.863281 C 153.917969 100.472656 144.335938 99.148438 136.601562 102.886719 C 135.726562 103.3125 134.683594 103.140625 133.996094 102.457031 C 132.902344 101.359375 133.191406 99.496094 134.585938 98.820312 Z M 122.894531 110.503906 C 118.316406 119.921875 119.910156 131.601562 127.675781 139.4375 C 128.492188 140.261719 129.804688 140.429688 130.726562 139.722656 C 131.84375 138.871094 131.925781 137.265625 130.964844 136.304688 C 124.542969 129.882812 123.207031 120.269531 126.960938 112.523438 C 127.386719 111.644531 127.222656 110.597656 126.535156 109.910156 C 125.4375 108.8125 123.574219 109.105469 122.894531 110.503906 Z M 233.484375 219.066406 C 225.75 222.800781 216.164062 221.476562 209.746094 215.085938 C 208.871094 214.214844 207.4375 214.164062 206.546875 215.011719 C 205.617188 215.894531 205.601562 217.363281 206.503906 218.265625 C 214.332031 226.09375 226.054688 227.714844 235.5 223.132812 C 236.894531 222.457031 237.183594 220.589844 236.089844 219.496094 C 235.402344 218.8125 234.359375 218.644531 233.484375 219.066406 Z M 239.082031 182.480469 C 238.234375 183.375 238.285156 184.804688 239.152344 185.679688 C 245.550781 192.101562 246.875 201.699219 243.125 209.4375 C 242.699219 210.3125 242.867188 211.355469 243.554688 212.042969 C 244.648438 213.140625 246.511719 212.847656 247.1875 211.457031 C 251.789062 202.007812 250.167969 190.273438 242.332031 182.4375 C 241.429688 181.535156 239.964844 181.550781 239.082031 182.480469 Z M 243.128906 112.527344 C 246.871094 120.261719 245.546875 129.855469 239.152344 136.273438 C 238.285156 137.148438 238.234375 138.582031 239.082031 139.472656 C 239.964844 140.402344 241.429688 140.417969 242.332031 139.515625 C 250.167969 131.683594 251.789062 119.957031 247.199219 110.511719 C 246.519531 109.117188 244.65625 108.824219 243.5625 109.921875 C 242.871094 110.605469 242.707031 111.652344 243.128906 112.527344 Z M 209.746094 106.867188 C 216.167969 100.472656 225.757812 99.148438 233.492188 102.894531 C 234.367188 103.316406 235.410156 103.148438 236.101562 102.460938 C 237.195312 101.363281 236.902344 99.503906 235.511719 98.824219 C 226.066406 94.234375 214.335938 95.851562 206.503906 103.6875 C 205.605469 104.589844 205.617188 106.058594 206.546875 106.941406 C 207.441406 107.789062 208.871094 107.738281 209.746094 106.867188 Z M 160.339844 215.085938 C 153.917969 221.480469 144.328125 222.804688 136.59375 219.0625 C 135.71875 218.636719 134.675781 218.804688 133.984375 219.496094 C 132.890625 220.589844 133.183594 222.453125 134.574219 223.128906 C 144.019531 227.722656 155.75 226.101562 163.582031 218.265625 C 164.480469 217.367188 164.46875 215.894531 163.539062 215.011719 C 162.644531 214.164062 161.214844 214.21875 160.339844 215.085938 Z M 126.960938 209.429688 C 123.21875 201.695312 124.539062 192.101562 130.933594 185.679688 C 131.804688 184.808594 131.855469 183.375 131.007812 182.480469 C 130.125 181.550781 128.65625 181.539062 127.753906 182.4375 C 119.921875 190.269531 118.300781 202 122.890625 211.445312 C 123.570312 212.839844 125.429688 213.128906 126.527344 212.035156 C 127.214844 211.347656 127.382812 210.304688 126.960938 209.429688 Z M 126.960938 209.429688 " fill-opacity="1" fill-rule="nonzero"/><g fill="rgb(38.42926%, 43.139648%, 44.309998%)" fill-opacity="1"><g transform="translate(185.834766, 77.500001)"><g/></g></g></svg>